<svg xmlns="http://www.w3.org/2000/svg" xmlns:svg="http://www.w3.org/2000/svg" id="svg2" width="12" height="12" version="1.1"><metadata id="metadata7"/><g id="layer1" transform="translate(0,-1040.3622)"><g id="g3314"><path id="path3310" d="M 3.96875,1045.3624 C 2.8748947,1045.3625 2,1046.2373 2,1047.3312 l 0,3.031 c 0,1.0938 0.8748948,1.9999 1.96875,1.9999 L 7,1052.3622 c 1.0938606,-0.01 1.9832845,-0.9063 2,-2 l 0,-2 -1,0 0,2 c 0,0.554 -0.4460004,1 -1,1 l -3,0 c -0.5539713,0 -1,-0.446 -1,-1 l 0,-3 c 0,-0.554 0.446,-1 1,-1 l 2,0 0,-1 z" style="fill:#999;fill-opacity:1;fill-rule:nonzero;stroke:none"/><path style="fill:#999;fill-opacity:1;fill-rule:nonzero;stroke:none" id="path3312" d="m 7,1042.3622 0,1 3.3125,0 -5.25,5.2813 0.6875,0.6875 5.25,-5.2813 0,3.3125 1,0 0,-5 z"/><path style="fill:#00f;fill-opacity:1;fill-rule:nonzero;stroke:none" id="rect2985" d="M 1.96875,1043.3624 C 0.8748947,1043.3625 0,1044.2373 0,1045.3312 l 0,3.031 c 0,1.0938 0.87489478,1.9999 1.96875,1.9999 L 5,1050.3622 c 1.0938606,-0.01 1.9832845,-0.9063 2,-2 l 0,-2 -1,0 0,2 c 0,0.554 -0.4460004,1 -1,1 l -3,0 c -0.5539713,0 -1,-0.446 -1,-1 l 0,-3 c 0,-0.554 0.446,-1 1,-1 l 2,0 0,-1 z"/><path id="rect3763" d="M 5,0 5,1 8.3125,1 3.0625,6.28125 3.75,6.96875 9,1.6875 9,5 10,5 10,0 z" transform="translate(0,1040.3622)" style="fill:#00f;fill-opacity:1;fill-rule:nonzero;stroke:none"/></g></g></svg>