<svg xmlns="http://www.w3.org/2000/svg" xmlns:svg="http://www.w3.org/2000/svg" xmlns:xlink="http://www.w3.org/1999/xlink" id="svg2" width="137.187" height="137.187" version="1.1" viewBox="0 0 128.613 128.613"><defs id="defs4"><linearGradient id="linearGradient3957"><stop id="stop3959" offset="0" style="stop-color:#fffeff;stop-opacity:.33333334"/><stop id="stop3961" offset="1" style="stop-color:#fffeff;stop-opacity:.21568628"/></linearGradient><linearGradient id="linearGradient2536"><stop id="stop2538" offset="0" style="stop-color:#a40000;stop-opacity:1"/><stop id="stop2540" offset="1" style="stop-color:#ff1717;stop-opacity:1"/></linearGradient><linearGradient id="linearGradient2479"><stop id="stop2481" offset="0" style="stop-color:#ffe69b;stop-opacity:1"/><stop id="stop2483" offset="1" style="stop-color:#fff;stop-opacity:1"/></linearGradient><linearGradient id="linearGradient4126"><stop style="stop-color:#000;stop-opacity:1" id="stop4128" offset="0"/><stop style="stop-color:#000;stop-opacity:0" id="stop4130" offset="1"/></linearGradient><radialGradient id="radialGradient2169" cx="23.857" cy="40" r="17.143" fx="23.857" fy="40" gradientTransform="matrix(1.000000,0.000000,0.000000,0.500000,1.899196e-14,20.00000)" gradientUnits="userSpaceOnUse" xlink:href="#linearGradient4126"/><linearGradient id="linearGradient3963" x1="21.994" x2="20.917" y1="33.955" y2="15.815" gradientUnits="userSpaceOnUse" xlink:href="#linearGradient3957"/><linearGradient id="linearGradient2262" x1="21.75" x2="24.302" y1="15.802" y2="35.052" gradientTransform="translate(0,-2)" gradientUnits="userSpaceOnUse" xlink:href="#linearGradient2256"/><radialGradient id="radialGradient2254" cx="16.75" cy="10.666" r="21.25" fx="16.75" fy="10.666" gradientTransform="matrix(4.154957,0,0,3.198723,-52.84553,-23.50921)" gradientUnits="userSpaceOnUse" xlink:href="#linearGradient15762"/><linearGradient id="linearGradient2243" x1="23.996" x2="41.048" y1="20.105" y2="37.96" gradientTransform="matrix(0.988373,0.000000,0.000000,0.988373,0.279002,0.278984)" gradientUnits="userSpaceOnUse" xlink:href="#linearGradient4981"/><radialGradient id="radialGradient2239" cx="24.302" cy="33.302" r="12.302" fx="24.302" fy="33.302" gradientTransform="matrix(1.693981,0,0,1.693981,-16.86529,-25.11111)" gradientUnits="userSpaceOnUse" xlink:href="#linearGradient9647"/><linearGradient id="linearGradient7901" x1="15.579" x2="32.166" y1="16.285" y2="28.394" gradientUnits="userSpaceOnUse" xlink:href="#linearGradient15762"/><linearGradient id="linearGradient4987" x1="23.996" x2="41.048" y1="20.105" y2="37.96" gradientTransform="translate(0,-2)" gradientUnits="userSpaceOnUse" xlink:href="#linearGradient4981"/><linearGradient id="linearGradient2057" x1="15.737" x2="53.57" y1="12.504" y2="47.374" gradientTransform="translate(0,-2)" gradientUnits="userSpaceOnUse" xlink:href="#linearGradient11780"/><linearGradient id="linearGradient15772" x1="5.737" x2="9.894" y1="5.386" y2="9.651" gradientTransform="matrix(-1.000000,0.000000,0.000000,-1.000000,31.72170,31.29079)" gradientUnits="userSpaceOnUse" xlink:href="#linearGradient15762"/><linearGradient id="linearGradient11014"><stop style="stop-color:#a80000;stop-opacity:1" id="stop11016" offset="0"/><stop style="stop-color:#c60000;stop-opacity:1" id="stop13245" offset="0"/><stop style="stop-color:#e50000;stop-opacity:1" id="stop11018" offset="1"/></linearGradient><linearGradient id="linearGradient11780"><stop style="stop-color:#ff8b8b;stop-opacity:1" id="stop11782" offset="0"/><stop style="stop-color:#ec1b1b;stop-opacity:1" id="stop11784" offset="1"/></linearGradient><linearGradient id="linearGradient14236"><stop id="stop14238" offset="0" style="stop-color:#ed4040;stop-opacity:1"/><stop id="stop14240" offset="1" style="stop-color:#a40000;stop-opacity:1"/></linearGradient><linearGradient id="linearGradient15762"><stop id="stop15764" offset="0" style="stop-color:#fff;stop-opacity:1"/><stop id="stop15766" offset="1" style="stop-color:#fff;stop-opacity:0"/></linearGradient><linearGradient id="linearGradient4981"><stop style="stop-color:#c00;stop-opacity:1" id="stop4983" offset="0"/><stop style="stop-color:#b30000;stop-opacity:1" id="stop4985" offset="1"/></linearGradient><radialGradient id="radialGradient21650" cx="25.125" cy="36.75" r="15.75" fx="25.125" fy="36.75" gradientTransform="matrix(1,0,0,0.595238,0,14.875)" gradientUnits="userSpaceOnUse" xlink:href="#linearGradient4126"/><linearGradient id="linearGradient9647"><stop style="stop-color:#fff;stop-opacity:1" id="stop9649" offset="0"/><stop style="stop-color:#dbdbdb;stop-opacity:1" id="stop9651" offset="1"/></linearGradient><linearGradient id="linearGradient2256"><stop style="stop-color:#ff0202;stop-opacity:1" id="stop2258" offset="0"/><stop style="stop-color:#ff9b9b;stop-opacity:1" id="stop2260" offset="1"/></linearGradient><radialGradient id="radialGradient2335" cx="24.302" cy="33.302" r="12.302" fx="24.302" fy="33.302" gradientTransform="matrix(1.693981,0,0,1.693981,-16.86529,-23.715608)" gradientUnits="userSpaceOnUse" xlink:href="#linearGradient9647"/><linearGradient id="linearGradient2337" x1="21.75" x2="24.302" y1="15.802" y2="35.052" gradientTransform="translate(-7.1723252e-7,-0.6044975)" gradientUnits="userSpaceOnUse" xlink:href="#linearGradient2256"/><linearGradient id="linearGradient3325"><stop id="stop30897" offset="0" style="stop-color:#d61313"/><stop id="stop30899" offset="1" style="stop-color:#fff"/></linearGradient><linearGradient id="linearGradient3311"><stop id="stop30902" offset="0" style="stop-color:#fe0000"/><stop id="stop30904" offset=".25" style="stop-color:#d20000"/><stop id="stop30906" offset=".5" style="stop-color:#900"/><stop id="stop30908" offset=".75" style="stop-color:#c82f2f"/><stop id="stop30910" offset="1" style="stop-color:#fc6363"/></linearGradient><linearGradient id="linearGradient3303"><stop id="stop30913" offset="0" style="stop-color:#d30000"/><stop id="stop30915" offset="1" style="stop-color:#fd6767"/></linearGradient><linearGradient id="linearGradient2485"><stop id="stop30918" offset="0" style="stop-color:#663232"/><stop id="stop30920" offset="1" style="stop-color:#a70202"/></linearGradient><linearGradient id="linearGradient2521" x1="10.755" x2="117.456" y1="98.848" y2="98.848" gradientTransform="translate(81.7143,353.849)" gradientUnits="userSpaceOnUse" xlink:href="#linearGradient2485"/><linearGradient id="linearGradient3309" x1="94.45" x2="195.773" y1="452.076" y2="452.076" gradientUnits="userSpaceOnUse" xlink:href="#linearGradient3303"/><linearGradient id="linearGradient3317" x1="97.564" x2="193.688" y1="451.793" y2="451.793" gradientUnits="userSpaceOnUse" xlink:href="#linearGradient3311"/><linearGradient id="linearGradient3331" x1="63.964" x2="63.964" y1="66.584" y2="17.37" gradientUnits="userSpaceOnUse" xlink:href="#linearGradient3325"/><filter id="filter3341" color-interpolation-filters="sRGB"><feGaussianBlur id="feGaussianBlur3343" stdDeviation="1.102"/></filter><linearGradient id="linearGradient38" x1="63.964" x2="63.964" y1="66.584" y2="17.37" gradientTransform="translate(-7.6908145,-7.983407)" gradientUnits="userSpaceOnUse" xlink:href="#linearGradient3325"/><linearGradient id="linearGradient41" x1="97.564" x2="193.688" y1="451.793" y2="451.793" gradientTransform="translate(-89.405114,-362.05941)" gradientUnits="userSpaceOnUse" xlink:href="#linearGradient3311"/><linearGradient id="linearGradient44" x1="94.45" x2="195.773" y1="452.076" y2="452.076" gradientTransform="translate(-89.405114,-362.05941)" gradientUnits="userSpaceOnUse" xlink:href="#linearGradient3303"/><linearGradient id="linearGradient47" x1="10.755" x2="117.456" y1="98.848" y2="98.848" gradientTransform="translate(-7.6908145,-8.210407)" gradientUnits="userSpaceOnUse" xlink:href="#linearGradient2485"/><marker id="ArrowEnd" markerHeight="3" markerUnits="strokeWidth" markerWidth="4" orient="auto" refX="0" refY="5" viewBox="0 0 10 10"><path id="path1612" d="M 0 0 L 10 5 L 0 10 z"/></marker><marker id="ArrowStart" markerHeight="3" markerUnits="strokeWidth" markerWidth="4" orient="auto" refX="10" refY="5" viewBox="0 0 10 10"><path id="path1614" d="M 10 0 L 0 5 L 10 10 z"/></marker></defs><metadata id="metadata7"/><g id="layer1" transform="translate(-276.57454,-254.80951)"><g id="g30418" transform="translate(-8.0812204,-82.83251)"><path style="fill:#129a47" id="path30420" d="m 354.85068,446.87322 c -1.54688,-0.62177 -2.8125,-1.4674 -2.8125,-1.87917 0,-1.83087 6.72746,-9.33188 8.36951,-9.33188 2.69167,0 9.13049,-6.91656 9.13049,-9.80794 0,-1.37513 -1.32658,-4.09028 -2.94796,-6.03365 -2.60707,-3.12482 -3.02456,-5.18559 -3.61038,-17.8211 -0.59997,-12.94079 -0.44026,-14.47268 1.69419,-16.25 6.30347,-5.24878 2.58421,-16.26502 -5.53908,-16.40647 -2.82282,-0.0491 -4.7816,-1.09619 -6.77125,-3.61949 l -2.79949,-3.55032 5.22841,-2.09199 c 10.80997,-4.32529 29.98744,-1.53225 42.13592,6.13675 2.58148,1.62961 7.0237,5.61007 9.87159,8.84545 8.47196,9.62466 8.59806,18.03443 0.5213,34.76797 -8.62083,17.86075 -20.8399,31.28495 -33.16313,36.43393 -4.97103,2.07703 -14.87672,2.38891 -19.30762,0.60791 z"/><path style="fill:#fdcc07" id="path30426" d="m 322.30791,444.93747 c -12.7514,-6.35429 -25.94299,-21.15476 -33.96051,-38.10243 -8.69309,-18.3757 -2.00847,-33.05242 19.79119,-43.45352 7.39741,-3.52946 11.14209,-4.5126 18.89838,-4.9616 11.71167,-0.67798 17.40921,0.98359 23.18788,6.76225 4.2597,4.2597 4.26472,4.27861 1.7925,6.75083 -3.70129,3.70129 -3.30122,10.40109 0.8144,13.63844 1.81147,1.4249 4.30825,2.59073 5.54841,2.59073 2.64448,0 4.14491,7.04075 4.23003,19.84936 0.0523,7.86234 0.003,7.97987 -3.52036,8.36671 -5.36809,0.58941 -8.30165,3.90648 -8.30165,9.38694 0,3.55943 0.77751,5.32712 3.17127,7.21006 l 3.17128,2.49453 -4.08925,4.65739 c -7.69148,8.76013 -19.1944,10.56052 -30.73357,4.81031 z"/><path id="path31267" d="m 350.75044,389.90973 c 3.60275,-0.40698 7.55888,0.76205 9.43199,3.61664 2.56038,3.90545 1.14866,9.36825 -3.61959,11.97392 -3.717,2.03489 -8.74562,2.19613 -12.18631,0.069 -2.97574,-1.82629 -4.02965,-5.61637 -2.98458,-8.79517 1.21331,-3.66782 5.01268,-6.36751 9.36115,-6.85884 z m 2.09895,25.28512 c 1.95725,4.2562 -0.47824,9.15429 -2.24067,13.34938 -3.15283,7.42735 -9.28143,21.31926 -10.33534,24.10071 -1.21332,3.17879 -0.0355,4.53895 2.32922,3.72897 4.0385,-1.41366 8.5021,-7.53434 11.61951,-9.47523 1.27532,-0.79471 2.6569,1.0392 2.04581,2.26182 -2.47092,4.95155 -12.26602,12.34071 -19.97103,15.2215 -4.25104,1.5894 -9.84824,2.73559 -13.93102,1.1309 -3.44512,-1.33722 -4.06505,-4.65355 -3.57797,-7.44263 1.44359,-8.18384 5.73005,-15.68761 9.10432,-23.35187 1.95105,-4.43196 5.72829,-11.93574 6.02231,-13.2424 0.54024,-2.39172 -1.43473,-2.98775 -3.63995,-1.9638 -4.4636,2.07843 -8.71463,8.09979 -11.12355,9.41408 -1.35503,0.74122 -2.77204,-0.54252 -2.47979,-1.58938 0.70852,-2.56749 7.43932,-8.13037 9.91911,-9.90314 6.5891,-4.70706 12.46087,-5.75392 16.58792,-6.07563 3.66739,-0.28891 8.18502,0.60527 9.67112,3.83672 z" style="fill:#058"/></g></g></svg>